<svg id="Layer_1" data-name="Layer 1" xmlns="http://www.w3.org/2000/svg" viewBox="0 0 292 204.64"><defs><style>.cls-1,.cls-2{fill:none;stroke:#ff8c00;stroke-miterlimit:10;}.cls-1{stroke-width:4px;}.cls-2{stroke-width:6px;}</style></defs><title>mu</title><path class="cls-1" d="M6,250.32V49.68H294V250.32H6Z" transform="translate(-4 -47.68)"/><path class="cls-2" d="M76.28,174v14.13H30V174L42.18,170V92.84L30,88V74.49l41.89-.81,24.36,54.07,25.49-53.26,39-.81V88L149,92.84V170L161.2,174v14.13H112.81V174L125.48,170V108.43q-2.92,7.63-6.74,15.83t-8.61,17.86q-4.79,9.66-7.39,15.18l-17.54.81L66.54,119.63l-2.76-8.44V170Z" transform="translate(-4 -47.68)"/><path class="cls-2" d="M181.18,226.32V118l-12-3.25v-13l35.89-1.3v56.67q0,12,9.42,12A22.69,22.69,0,0,0,224,167a30.77,30.77,0,0,0,7.39-4.47l2.44-2.27V118l-12-3.25v-13l35.89-1.3v70.64L270,174.36V187l-33,1.14-1.62-11.53q-1.46,1.46-4,3.65a59.3,59.3,0,0,1-9,5.85q-6.5,3.65-11.37,3.65a17.06,17.06,0,0,1-6-1v37.51H181.18Z" transform="translate(-4 -47.68)"/></svg>